<svg xmlns="http://www.w3.org/2000/svg" xmlns:xlink="http://www.w3.org/1999/xlink" version="1.1" id="레이어_1" x="0px" y="0px" viewBox="0 0 320 270" style="enable-background:new 0 0 320 270;" xml:space="preserve">
<style type="text/css">
	.st0{fill:#90DBD7;}
	.st1{fill:#FFD000;}
	.st2{fill:#F18F1C;}
	.st3{fill:#231815;}
	.st4{fill:#FFFFFF;}
	.st5{fill:none;stroke:#231815;stroke-linecap:round;stroke-linejoin:round;stroke-miterlimit:10;}
	.st6{fill:none;stroke:#FFD000;stroke-miterlimit:10;}
</style>
<path class="st0" d="M315.86,141.01c2.8,22.51-1.43,41.37-2.02,43.89c-2.27,9.71-5.29,22.67-13.87,34.59  c-29.05,40.37-103.01,42.82-137.12,43.95c-1.96,0.06-3.28,0.09-3.72,0.1c-34.08,0.79-98.07,2.29-130.03-35.08  c-8.75-10.23-19.15-28.11-24.12-49.51c-1.01-4.36-4.28-19.52-2.58-37.94c2.89-31.33,20.19-72.94,60.95-99.14  c36.1-23.21,73.48-23.32,95.78-23.39c23.79-0.07,64.44-0.2,101.01,25.52C307.76,77.49,314.4,129.3,315.86,141.01z"/>
<path class="st0" d="M177.09,19.9c-3.9-2.39-5.26-8.02-5.26-8.02c-0.74-1.82-1.73-0.64-1.73-0.64c-2.85,2.02-1.39,7.43-1.39,7.43  c-2.97-2.52-2.91-14.66-2.91-14.66c-0.19-0.77-1.15-0.3-1.15-0.3c-5.01,2.08-4.95,11.74-4.95,11.74c-0.61-2.91-0.17-7.61-0.17-7.61  c-0.56-1.61-2.12-0.53-2.12-0.53c-9.41,4.03-8.75,12.46-8.75,12.46"/>
<path class="st1" d="M269.91,151.01c1.61,21.16-1.68,39.27-18.12,57.27c-18.19,19.92-59.6,27.02-92.99,27.02  c-29.14,0-63.28-6.45-83.1-20.37c-21.91-15.4-28-39.48-28-63.92c0-23.6,10.14-44.04,30.74-59.34  c20.04-14.88,50.11-21.13,80.36-21.13c25.23,0,55.55,5.21,73.42,17.22C257.27,104.58,267.84,123.76,269.91,151.01z"/>
<path class="st2" d="M5.35,180.52c0,0,28.87-39.38,86.05-41.77c0,0,30.58-2.53,35.77,17.82c4.11,16.14-1.84,25.45-7.78,28.56  c0,0-70,34.42-67.48,61.55c0,0-18.16-8.37-30.31-27.66C10.94,202.11,6.44,184.07,5.35,180.52z"/>
<path class="st2" d="M314.73,180.52c0,0-27.72-37.2-90.11-41.87c0,0-31.55-1.5-36.73,18.85c-4.11,16.14,1.84,25.45,7.78,28.56  c0,0,70.04,33.71,67.52,60.84c0,0,23.7-7.79,38.43-29.64C309.4,205.74,314.73,180.52,314.73,180.52z"/>
<g>
	<path class="st3" d="M116.87,166.16c0,7.08-2.57,9.16-4.13,10.33c-5.25,3.92-14,3.92-16.67,3.91c-2.77-0.01-11.28,1.25-17.35-4.08   c-1.17-1.03-4.09-4.24-3.98-10.16c0.14-7.34,5.18-11.78,7.21-13.09c5.07-3.27,11.93-3.43,13.86-3.47   c2.39-0.04,9.38,0.15,14.49,3.64C111.88,154.31,116.88,158.64,116.87,166.16z"/>
	<path class="st4" d="M111.27,160.76c0,1.49-0.83,2.86-1.22,3.26c-0.11,0.11-1.4,1.45-3.42,1.38c-2.33-0.08-5.59-2.87-5.59-5.22   c0-1.77,0.88-2.87,1.09-3.06c0.15-0.13,1.48-1.52,3.32-1.45C107.57,155.76,111.27,158.12,111.27,160.76z"/>
</g>
<g>
	<path class="st3" d="M154.73,194.88c-2.51,0-4.88-0.42-6.36-0.85c-1.65-0.48-2.86-1.18-4.5-2.19c-0.96-0.59-2.09-1.38-3.28-3.02   c-0.91-1.26-1.83-2.98-2.22-5.52c-0.78-5.09,0.96-8.83,6.05-9.61c5.09-0.78,9.91-0.96,9.91-0.96l0,0"/>
	<path class="st3" d="M154.73,194.88c1.37-0.06,3.3-0.09,5.48-0.72c2.1-0.61,3.76-1.31,4.3-1.6c1.91-1.02,3.16-2.25,4.5-4.09   c0.78-1.08,1.55-2.4,1.86-4.4c0.78-5.09-0.26-9.57-5.35-10.35c-2.23-0.34-5.31-1.09-11.18-1"/>
</g>
<g>
	<path d="M240.55,166.16c0,7.08-2.57,9.16-4.13,10.33c-5.25,3.92-14,3.92-16.67,3.91c-2.77-0.01-11.28,1.25-17.35-4.08   c-1.17-1.03-4.09-4.24-3.98-10.16c0.14-7.34,5.18-11.78,7.21-13.09c5.07-3.27,11.93-3.43,13.86-3.47   c2.39-0.04,9.38,0.15,14.49,3.64C235.56,154.31,240.55,158.64,240.55,166.16z"/>
	<path class="st4" d="M234.94,160.76c0,1.49-0.83,2.86-1.22,3.26c-0.11,0.11-1.4,1.45-3.42,1.38c-2.33-0.08-5.59-2.87-5.59-5.22   c0-1.77,0.88-2.87,1.09-3.06c0.15-0.13,1.48-1.52,3.32-1.45C231.24,155.76,234.94,158.12,234.94,160.76z"/>
</g>
<ellipse class="st1" cx="148.43" cy="186.12" rx="1" ry="1.32"/>
<ellipse class="st1" cx="160.99" cy="186.12" rx="1" ry="1.32"/>
<path class="st5" d="M125.27,195.77c0,0-2.97,6.97,24.68,3.19c0,0,5.44-2.09,10.67,0c0,0,22.21,3.79,24.98-3.18"/>
<path class="st5" d="M91.41,110.6c0,0,5.82-4.65,12.21-0.04"/>
<path class="st5" d="M213.77,110.56c0,0,5.46-4.48,11.42,0"/>
<line class="st6" x1="155.39" y1="171.89" x2="155.39" y2="195.77"/>
</svg>