<svg width="215" height="285" viewBox="0 0 215 285" fill="none" xmlns="http://www.w3.org/2000/svg">
<g filter="url(#filter0_d_70_1546)">
<rect x="4" width="207" height="277" rx="8" fill="white"/>
</g>
<path d="M59.4096 213.368H66.0816C66.0816 225.08 58.8816 233.144 45.8736 236.696L43.3776 231.752C53.9856 228.872 59.4096 223.208 59.4096 216.392V213.368ZM45.8256 213.368H63.8256V218.408H45.8256V213.368ZM74.0016 210.824H80.3856V235.688H74.0016V210.824ZM66.3216 221.336H74.9136V226.52H66.3216V221.336ZM51.1056 237.464H80.3856V254.792H51.1056V237.464ZM74.0976 242.504H57.3936V249.752H74.0976V242.504ZM87.3419 233.48H127.518V238.568H87.3419V233.48ZM92.1899 249.416H123.006V254.504H92.1899V249.416ZM92.1899 241.544H98.5739V251.048H92.1899V241.544ZM107.454 212.12C117.102 212.12 123.534 215.624 123.534 221.288C123.534 226.952 117.102 230.456 107.454 230.456C97.7579 230.456 91.3739 226.952 91.3739 221.288C91.3739 215.624 97.7579 212.12 107.454 212.12ZM107.454 217.208C101.454 217.208 97.9499 218.6 97.9499 221.288C97.9499 224.024 101.454 225.368 107.454 225.368C113.454 225.368 116.958 224.024 116.958 221.288C116.958 218.6 113.454 217.208 107.454 217.208ZM139.514 213.368H144.506V218.456C144.506 226.04 141.482 233.576 134.234 236.696L130.874 231.752C137.066 229.016 139.514 223.496 139.514 218.456V213.368ZM140.666 213.368H145.658V218.456C145.658 223.4 148.01 228.2 153.866 230.648L150.506 235.496C143.594 232.664 140.666 225.848 140.666 218.456V213.368ZM163.322 210.872H169.37V237.8H163.322V210.872ZM157.994 221.624H165.05V226.808H157.994V221.624ZM153.914 211.544H159.866V237.56H153.914V211.544ZM138.842 239.72H169.37V255.272H163.034V244.808H138.842V239.72Z" fill="black"/>
<rect x="12" y="10" width="191" height="258" rx="7" stroke="#16A000" stroke-width="2"/>
<circle cx="107" cy="110" r="66.5" fill="black" stroke="black" stroke-width="3"/>
<defs>
<filter id="filter0_d_70_1546" x="0" y="0" width="215" height="285" filterUnits="userSpaceOnUse" color-interpolation-filters="sRGB">
<feFlood flood-opacity="0" result="BackgroundImageFix"/>
<feColorMatrix in="SourceAlpha" type="matrix" values="0 0 0 0 0 0 0 0 0 0 0 0 0 0 0 0 0 0 127 0" result="hardAlpha"/>
<feOffset dy="4"/>
<feGaussianBlur stdDeviation="2"/>
<feComposite in2="hardAlpha" operator="out"/>
<feColorMatrix type="matrix" values="0 0 0 0 0 0 0 0 0 0 0 0 0 0 0 0 0 0 0.25 0"/>
<feBlend mode="normal" in2="BackgroundImageFix" result="effect1_dropShadow_70_1546"/>
<feBlend mode="normal" in="SourceGraphic" in2="effect1_dropShadow_70_1546" result="shape"/>
</filter>
</defs>
</svg>
