<svg width="215" height="285" viewBox="0 0 215 285" fill="none" xmlns="http://www.w3.org/2000/svg">
<g filter="url(#filter0_d_70_1543)">
<rect x="4" width="207" height="277" rx="8" fill="white"/>
</g>
<path d="M43.2336 245.048H83.4576V250.232H43.2336V245.048ZM60.1296 236.504H66.5136V247.736H60.1296V236.504ZM60.0816 220.088H65.7456V221.048C65.7456 229.544 58.9776 236.408 46.7856 237.992L44.4816 232.952C55.2816 231.656 60.0816 226.136 60.0816 221.048V220.088ZM60.9456 220.088H66.5616V221.048C66.5616 226.136 71.3616 231.656 82.1616 232.952L79.8576 237.992C67.6656 236.408 60.9456 229.544 60.9456 221.048V220.088ZM46.6416 216.824H80.0016V221.96H46.6416V216.824ZM60.1296 211.4H66.5136V218.936H60.1296V211.4ZM87.3419 234.632H127.614V239.72H87.3419V234.632ZM92.2859 211.688H122.718V223.736H98.6699V228.536H92.3339V219.224H116.43V216.536H92.2859V211.688ZM92.3339 226.616H123.582V231.464H92.3339V226.616ZM104.286 228.968H110.67V237.416H104.286V228.968ZM91.8059 242.216H123.006V255.128H116.622V247.256H91.8059V242.216ZM139.514 213.368H144.506V218.456C144.506 226.04 141.482 233.576 134.234 236.696L130.874 231.752C137.066 229.016 139.514 223.496 139.514 218.456V213.368ZM140.666 213.368H145.658V218.456C145.658 223.4 148.01 228.2 153.866 230.648L150.506 235.496C143.594 232.664 140.666 225.848 140.666 218.456V213.368ZM163.322 210.872H169.37V237.8H163.322V210.872ZM157.994 221.624H165.05V226.808H157.994V221.624ZM153.914 211.544H159.866V237.56H153.914V211.544ZM138.842 239.72H169.37V255.272H163.034V244.808H138.842V239.72Z" fill="black"/>
<rect x="12" y="10" width="191" height="258" rx="7" stroke="#16A000" stroke-width="2"/>
<circle cx="107" cy="110" r="66.5" fill="#008000" stroke="black" stroke-width="3"/>
<defs>
<filter id="filter0_d_70_1543" x="0" y="0" width="215" height="285" filterUnits="userSpaceOnUse" color-interpolation-filters="sRGB">
<feFlood flood-opacity="0" result="BackgroundImageFix"/>
<feColorMatrix in="SourceAlpha" type="matrix" values="0 0 0 0 0 0 0 0 0 0 0 0 0 0 0 0 0 0 127 0" result="hardAlpha"/>
<feOffset dy="4"/>
<feGaussianBlur stdDeviation="2"/>
<feComposite in2="hardAlpha" operator="out"/>
<feColorMatrix type="matrix" values="0 0 0 0 0 0 0 0 0 0 0 0 0 0 0 0 0 0 0.25 0"/>
<feBlend mode="normal" in2="BackgroundImageFix" result="effect1_dropShadow_70_1543"/>
<feBlend mode="normal" in="SourceGraphic" in2="effect1_dropShadow_70_1543" result="shape"/>
</filter>
</defs>
</svg>
