<svg width="215" height="285" viewBox="0 0 215 285" fill="none" xmlns="http://www.w3.org/2000/svg">
<g filter="url(#filter0_d_70_1544)">
<rect x="4" width="207" height="277" rx="8" fill="white"/>
</g>
<path d="M59.6496 215.768H65.1696V217.064C65.1696 224.888 58.7856 231.272 47.5056 232.808L45.1536 227.816C54.9456 226.616 59.6496 221.624 59.6496 217.064V215.768ZM61.4736 215.768H66.9936V217.064C66.9936 221.624 71.6976 226.616 81.4896 227.816L79.1856 232.808C67.8576 231.272 61.4736 224.888 61.4736 217.064V215.768ZM59.9856 239H66.3216V255.32H59.9856V239ZM43.2336 235.352H83.4096V240.44H43.2336V235.352ZM46.7856 213.08H79.7616V218.12H46.7856V213.08ZM116.238 210.872H122.622V240.824H116.238V210.872ZM120.366 223.4H128.19V228.68H120.366V223.4ZM107.742 241.256C117.342 241.256 122.862 243.752 122.862 248.312C122.862 252.872 117.342 255.32 107.742 255.32C98.1419 255.32 92.6219 252.872 92.6219 248.312C92.6219 243.752 98.1419 241.256 107.742 241.256ZM107.742 245.864C101.694 245.864 99.0059 246.584 99.0059 248.312C99.0059 249.992 101.694 250.712 107.742 250.712C113.694 250.712 116.43 249.992 116.43 248.312C116.43 246.584 113.694 245.864 107.742 245.864ZM97.4219 230.408H103.806V236.936H97.4219V230.408ZM87.5339 239.672L86.8139 234.872C94.7339 234.872 105.294 234.824 114.27 233.624L114.75 237.944C105.438 239.576 95.2619 239.672 87.5339 239.672ZM87.9659 213.992H113.166V218.6H87.9659V213.992ZM100.59 219.704C107.166 219.704 111.39 222.104 111.39 226.04C111.39 229.976 107.166 232.376 100.59 232.376C94.0139 232.376 89.7419 229.976 89.7419 226.04C89.7419 222.104 94.0139 219.704 100.59 219.704ZM100.59 223.784C97.5659 223.784 95.7899 224.552 95.7899 226.04C95.7899 227.576 97.5659 228.296 100.59 228.296C103.614 228.296 105.342 227.576 105.342 226.04C105.342 224.552 103.614 223.784 100.59 223.784ZM97.4219 210.488H103.806V216.008H97.4219V210.488ZM139.514 213.368H144.506V218.456C144.506 226.04 141.482 233.576 134.234 236.696L130.874 231.752C137.066 229.016 139.514 223.496 139.514 218.456V213.368ZM140.666 213.368H145.658V218.456C145.658 223.4 148.01 228.2 153.866 230.648L150.506 235.496C143.594 232.664 140.666 225.848 140.666 218.456V213.368ZM163.322 210.872H169.37V237.8H163.322V210.872ZM157.994 221.624H165.05V226.808H157.994V221.624ZM153.914 211.544H159.866V237.56H153.914V211.544ZM138.842 239.72H169.37V255.272H163.034V244.808H138.842V239.72Z" fill="black"/>
<rect x="12" y="10" width="191" height="258" rx="7" stroke="#16A000" stroke-width="2"/>
<circle cx="107" cy="110" r="66.5" fill="#FFA500" stroke="black" stroke-width="3"/>
<defs>
<filter id="filter0_d_70_1544" x="0" y="0" width="215" height="285" filterUnits="userSpaceOnUse" color-interpolation-filters="sRGB">
<feFlood flood-opacity="0" result="BackgroundImageFix"/>
<feColorMatrix in="SourceAlpha" type="matrix" values="0 0 0 0 0 0 0 0 0 0 0 0 0 0 0 0 0 0 127 0" result="hardAlpha"/>
<feOffset dy="4"/>
<feGaussianBlur stdDeviation="2"/>
<feComposite in2="hardAlpha" operator="out"/>
<feColorMatrix type="matrix" values="0 0 0 0 0 0 0 0 0 0 0 0 0 0 0 0 0 0 0.25 0"/>
<feBlend mode="normal" in2="BackgroundImageFix" result="effect1_dropShadow_70_1544"/>
<feBlend mode="normal" in="SourceGraphic" in2="effect1_dropShadow_70_1544" result="shape"/>
</filter>
</defs>
</svg>
