<svg width="215" height="285" viewBox="0 0 215 285" fill="none" xmlns="http://www.w3.org/2000/svg">
<g filter="url(#filter0_d_70_1542)">
<rect x="4" width="207" height="277" rx="8" fill="white"/>
</g>
<path d="M43.1856 233.576H83.4096V238.616H43.1856V233.576ZM60.6096 236.264H67.0416V245.624H60.6096V236.264ZM47.8416 249.416H78.9936V254.504H47.8416V249.416ZM47.8416 242.264H54.1776V251.576H47.8416V242.264ZM48.3216 212.216H54.6096V216.776H71.9376V212.216H78.2736V230.504H48.3216V212.216ZM54.6096 221.576V225.512H71.9376V221.576H54.6096ZM107.358 241.496C117.198 241.496 122.766 243.896 122.766 248.408C122.766 252.92 117.198 255.272 107.358 255.272C97.5179 255.272 91.9019 252.92 91.9019 248.408C91.9019 243.896 97.5179 241.496 107.358 241.496ZM107.358 246.104C101.214 246.104 98.4299 246.776 98.4299 248.408C98.4299 250.04 101.214 250.712 107.358 250.712C113.55 250.712 116.286 250.04 116.286 248.408C116.286 246.776 113.55 246.104 107.358 246.104ZM89.2619 213.992H125.454V218.792H89.2619V213.992ZM107.454 219.944C117.006 219.944 122.334 222.152 122.334 226.328C122.334 230.504 117.006 232.664 107.454 232.664C97.9019 232.664 92.5739 230.504 92.5739 226.328C92.5739 222.152 97.9019 219.944 107.454 219.944ZM107.454 224.264C101.934 224.264 99.3899 224.84 99.3899 226.328C99.3899 227.768 101.934 228.392 107.454 228.392C112.974 228.392 115.47 227.768 115.47 226.328C115.47 224.84 112.974 224.264 107.454 224.264ZM104.238 210.488H110.622V217.352H104.238V210.488ZM87.3419 234.824H127.518V239.768H87.3419V234.824ZM104.238 230.696H110.622V236.936H104.238V230.696ZM139.514 213.368H144.506V218.456C144.506 226.04 141.482 233.576 134.234 236.696L130.874 231.752C137.066 229.016 139.514 223.496 139.514 218.456V213.368ZM140.666 213.368H145.658V218.456C145.658 223.4 148.01 228.2 153.866 230.648L150.506 235.496C143.594 232.664 140.666 225.848 140.666 218.456V213.368ZM163.322 210.872H169.37V237.8H163.322V210.872ZM157.994 221.624H165.05V226.808H157.994V221.624ZM153.914 211.544H159.866V237.56H153.914V211.544ZM138.842 239.72H169.37V255.272H163.034V244.808H138.842V239.72Z" fill="black"/>
<rect x="12" y="10" width="191" height="258" rx="7" stroke="#16A000" stroke-width="2"/>
<circle cx="107" cy="110" r="66.5" fill="#FFC0CB" stroke="black" stroke-width="3"/>
<defs>
<filter id="filter0_d_70_1542" x="0" y="0" width="215" height="285" filterUnits="userSpaceOnUse" color-interpolation-filters="sRGB">
<feFlood flood-opacity="0" result="BackgroundImageFix"/>
<feColorMatrix in="SourceAlpha" type="matrix" values="0 0 0 0 0 0 0 0 0 0 0 0 0 0 0 0 0 0 127 0" result="hardAlpha"/>
<feOffset dy="4"/>
<feGaussianBlur stdDeviation="2"/>
<feComposite in2="hardAlpha" operator="out"/>
<feColorMatrix type="matrix" values="0 0 0 0 0 0 0 0 0 0 0 0 0 0 0 0 0 0 0.25 0"/>
<feBlend mode="normal" in2="BackgroundImageFix" result="effect1_dropShadow_70_1542"/>
<feBlend mode="normal" in="SourceGraphic" in2="effect1_dropShadow_70_1542" result="shape"/>
</filter>
</defs>
</svg>
