<svg width="215" height="285" viewBox="0 0 215 285" fill="none" xmlns="http://www.w3.org/2000/svg">
<g filter="url(#filter0_d_70_1532)">
<rect x="4" width="207" height="277" rx="8" fill="white"/>
</g>
<path d="M73.6176 210.824H79.9056V233.72H73.6176V210.824ZM75.6816 219.368H84.1296V224.552H75.6816V219.368ZM43.6176 212.696H48.8016V217.64H51.4416V212.696H56.6256V232.328H43.6176V212.696ZM48.8016 222.44V227.336H51.4416V222.44H48.8016ZM58.3536 212.696H63.5376V217.64H66.0816V212.696H71.2656V232.328H58.3536V212.696ZM63.5376 222.44V227.336H66.0816V222.44H63.5376ZM49.5216 235.304H79.9056V247.304H55.9056V252.536H49.6176V242.744H73.5696V240.2H49.5216V235.304ZM49.6176 250.04H81.2976V254.984H49.6176V250.04ZM115.902 210.824H122.334V242.648H115.902V210.824ZM120.51 223.208H128.238V228.44H120.51V223.208ZM103.518 214.136H110.334C110.334 226.232 102.942 234.536 89.6939 238.376L87.0059 233.288C97.9019 230.312 103.518 224.36 103.518 217.304V214.136ZM88.9259 214.136H106.974V219.272H88.9259V214.136ZM93.5819 249.416H123.822V254.504H93.5819V249.416ZM93.5819 239.432H100.014V251.672H93.5819V239.432ZM139.514 213.368H144.506V218.456C144.506 226.04 141.482 233.576 134.234 236.696L130.874 231.752C137.066 229.016 139.514 223.496 139.514 218.456V213.368ZM140.666 213.368H145.658V218.456C145.658 223.4 148.01 228.2 153.866 230.648L150.506 235.496C143.594 232.664 140.666 225.848 140.666 218.456V213.368ZM163.322 210.872H169.37V237.8H163.322V210.872ZM157.994 221.624H165.05V226.808H157.994V221.624ZM153.914 211.544H159.866V237.56H153.914V211.544ZM138.842 239.72H169.37V255.272H163.034V244.808H138.842V239.72Z" fill="black"/>
<rect x="12" y="10" width="191" height="258" rx="7" stroke="#16A000" stroke-width="2"/>
<circle cx="107" cy="110" r="66.5" fill="#FF0000" stroke="black" stroke-width="3"/>
<defs>
<filter id="filter0_d_70_1532" x="0" y="0" width="215" height="285" filterUnits="userSpaceOnUse" color-interpolation-filters="sRGB">
<feFlood flood-opacity="0" result="BackgroundImageFix"/>
<feColorMatrix in="SourceAlpha" type="matrix" values="0 0 0 0 0 0 0 0 0 0 0 0 0 0 0 0 0 0 127 0" result="hardAlpha"/>
<feOffset dy="4"/>
<feGaussianBlur stdDeviation="2"/>
<feComposite in2="hardAlpha" operator="out"/>
<feColorMatrix type="matrix" values="0 0 0 0 0 0 0 0 0 0 0 0 0 0 0 0 0 0 0.25 0"/>
<feBlend mode="normal" in2="BackgroundImageFix" result="effect1_dropShadow_70_1532"/>
<feBlend mode="normal" in="SourceGraphic" in2="effect1_dropShadow_70_1532" result="shape"/>
</filter>
</defs>
</svg>
