<svg width="215" height="285" viewBox="0 0 215 285" fill="none" xmlns="http://www.w3.org/2000/svg">
<g filter="url(#filter0_d_70_1539)">
<rect x="4" width="207" height="277" rx="8" fill="white"/>
</g>
<path d="M71.6976 210.824H78.0336V255.272H71.6976V210.824ZM76.5936 228.152H84.4656V233.48H76.5936V228.152ZM42.9936 217.4H68.8656V222.488H42.9936V217.4ZM56.0016 224.984C62.4816 224.984 67.2816 229.4 67.2816 235.592C67.2816 241.784 62.4816 246.2 56.0016 246.2C49.5216 246.2 44.7216 241.784 44.7216 235.592C44.7216 229.4 49.5216 224.984 56.0016 224.984ZM56.0016 230.168C52.9776 230.168 50.8176 232.184 50.8176 235.592C50.8176 239 52.9776 241.016 56.0016 241.016C59.0256 241.016 61.1856 239 61.1856 235.592C61.1856 232.184 59.0256 230.168 56.0016 230.168ZM52.7856 211.544H59.1696V219.32H52.7856V211.544ZM92.3339 219.704H123.006V224.744H92.3339V219.704ZM87.3419 227.624H127.614V232.664H87.3419V227.624ZM92.3339 211.304H98.6699V222.392H92.3339V211.304ZM91.9019 235.352H122.862V247.16H98.3339V251.096H91.9499V242.648H116.478V240.152H91.9019V235.352ZM91.9499 249.944H124.158V254.792H91.9499V249.944ZM139.514 213.368H144.506V218.456C144.506 226.04 141.482 233.576 134.234 236.696L130.874 231.752C137.066 229.016 139.514 223.496 139.514 218.456V213.368ZM140.666 213.368H145.658V218.456C145.658 223.4 148.01 228.2 153.866 230.648L150.506 235.496C143.594 232.664 140.666 225.848 140.666 218.456V213.368ZM163.322 210.872H169.37V237.8H163.322V210.872ZM157.994 221.624H165.05V226.808H157.994V221.624ZM153.914 211.544H159.866V237.56H153.914V211.544ZM138.842 239.72H169.37V255.272H163.034V244.808H138.842V239.72Z" fill="black"/>
<rect x="12" y="10" width="191" height="258" rx="7" stroke="#16A000" stroke-width="2"/>
<circle cx="107" cy="110" r="66.5" fill="#87CEEB" stroke="black" stroke-width="3"/>
<defs>
<filter id="filter0_d_70_1539" x="0" y="0" width="215" height="285" filterUnits="userSpaceOnUse" color-interpolation-filters="sRGB">
<feFlood flood-opacity="0" result="BackgroundImageFix"/>
<feColorMatrix in="SourceAlpha" type="matrix" values="0 0 0 0 0 0 0 0 0 0 0 0 0 0 0 0 0 0 127 0" result="hardAlpha"/>
<feOffset dy="4"/>
<feGaussianBlur stdDeviation="2"/>
<feComposite in2="hardAlpha" operator="out"/>
<feColorMatrix type="matrix" values="0 0 0 0 0 0 0 0 0 0 0 0 0 0 0 0 0 0 0.25 0"/>
<feBlend mode="normal" in2="BackgroundImageFix" result="effect1_dropShadow_70_1539"/>
<feBlend mode="normal" in="SourceGraphic" in2="effect1_dropShadow_70_1539" result="shape"/>
</filter>
</defs>
</svg>
