<svg width="215" height="285" viewBox="0 0 215 285" fill="none" xmlns="http://www.w3.org/2000/svg">
<g filter="url(#filter0_d_70_1540)">
<rect x="4" width="207" height="277" rx="8" fill="white"/>
</g>
<path d="M95.8878 210.872H102.32V245.384H95.8878V210.872ZM66.7518 214.568H92.8638V219.128H66.7518V214.568ZM79.8078 220.376C86.4798 220.376 90.8478 222.968 90.8478 227.288C90.8478 231.512 86.4798 234.152 79.8078 234.152C73.1358 234.152 68.7678 231.512 68.7678 227.288C68.7678 222.968 73.1358 220.376 79.8078 220.376ZM79.8078 224.6C76.6878 224.6 74.8158 225.512 74.8158 227.288C74.8158 228.968 76.6878 229.832 79.8078 229.832C82.9278 229.832 84.7998 228.968 84.7998 227.288C84.7998 225.512 82.9278 224.6 79.8078 224.6ZM76.5918 210.68H83.0238V218.264H76.5918V210.68ZM72.1278 249.416H103.472V254.504H72.1278V249.416ZM72.1278 243.176H78.5598V250.616H72.1278V243.176ZM66.2718 240.92L65.5038 236.12C73.5198 236.12 84.1758 236.072 93.2478 234.92L93.7278 239.192C84.3198 240.824 74.0958 240.92 66.2718 240.92ZM117.436 213.368H122.428V218.456C122.428 226.04 119.404 233.576 112.156 236.696L108.796 231.752C114.988 229.016 117.436 223.496 117.436 218.456V213.368ZM118.588 213.368H123.58V218.456C123.58 223.4 125.932 228.2 131.788 230.648L128.428 235.496C121.516 232.664 118.588 225.848 118.588 218.456V213.368ZM141.244 210.872H147.292V237.8H141.244V210.872ZM135.916 221.624H142.972V226.808H135.916V221.624ZM131.836 211.544H137.788V237.56H131.836V211.544ZM116.764 239.72H147.292V255.272H140.956V244.808H116.764V239.72Z" fill="black"/>
<rect x="12" y="10" width="191" height="258" rx="7" stroke="#16A000" stroke-width="2"/>
<circle cx="107" cy="110" r="66.5" fill="white" stroke="black" stroke-width="3"/>
<defs>
<filter id="filter0_d_70_1540" x="0" y="0" width="215" height="285" filterUnits="userSpaceOnUse" color-interpolation-filters="sRGB">
<feFlood flood-opacity="0" result="BackgroundImageFix"/>
<feColorMatrix in="SourceAlpha" type="matrix" values="0 0 0 0 0 0 0 0 0 0 0 0 0 0 0 0 0 0 127 0" result="hardAlpha"/>
<feOffset dy="4"/>
<feGaussianBlur stdDeviation="2"/>
<feComposite in2="hardAlpha" operator="out"/>
<feColorMatrix type="matrix" values="0 0 0 0 0 0 0 0 0 0 0 0 0 0 0 0 0 0 0.25 0"/>
<feBlend mode="normal" in2="BackgroundImageFix" result="effect1_dropShadow_70_1540"/>
<feBlend mode="normal" in="SourceGraphic" in2="effect1_dropShadow_70_1540" result="shape"/>
</filter>
</defs>
</svg>
