<?xml version="1.0" encoding="utf-8"?>
<!-- Generator: Adobe Illustrator 28.0.0, SVG Export Plug-In . SVG Version: 6.00 Build 0)  -->
<svg version="1.1" id="레이어_1" xmlns="http://www.w3.org/2000/svg" xmlns:xlink="http://www.w3.org/1999/xlink" x="0px"
	 y="0px" viewBox="0 0 24 24" style="enable-background:new 0 0 24 24;" xml:space="preserve">
<style type="text/css">
	.st0{fill:#FFFFFF;}
	.st1{fill:none;stroke:#000000;stroke-width:2;stroke-linecap:round;stroke-linejoin:round;stroke-miterlimit:10;}
</style>
<circle class="st0" cx="12" cy="12" r="9.4"/>
<path d="M9,14.2c-0.3,0-0.6-0.1-0.9-0.4c-0.2-0.2-0.4-0.5-0.4-0.9c0-0.4,0.1-0.6,0.4-0.9c0.2-0.2,0.5-0.4,0.9-0.4
	c0.4,0,0.6,0.1,0.9,0.4c0.2,0.2,0.4,0.5,0.4,0.9c0,0.3-0.1,0.6-0.4,0.9C9.6,14.1,9.4,14.2,9,14.2z M15,14.2c-0.3,0-0.6-0.1-0.9-0.4
	s-0.4-0.5-0.4-0.9c0-0.4,0.1-0.6,0.4-0.9c0.2-0.2,0.5-0.4,0.9-0.4c0.4,0,0.6,0.1,0.9,0.4c0.2,0.2,0.4,0.5,0.4,0.9
	c0,0.3-0.1,0.6-0.4,0.9C15.6,14.1,15.4,14.2,15,14.2z M12,20c2.2,0,4.1-0.8,5.7-2.3c1.5-1.5,2.3-3.4,2.3-5.7c0-0.4,0-0.8-0.1-1.2
	c-0.1-0.4-0.1-0.7-0.3-1.1c-0.3,0.1-0.7,0.1-1,0.2S17.9,10,17.5,10c-1.5,0-2.9-0.3-4.3-1c-1.3-0.6-2.5-1.6-3.4-2.7
	C9.2,7.6,8.5,8.7,7.5,9.7S5.3,11.4,4,11.8V12c0,2.2,0.8,4.1,2.3,5.7C7.9,19.2,9.8,20,12,20z M12,22c-1.4,0-2.7-0.3-3.9-0.8
	S5.8,20,4.9,19.1c-0.9-0.9-1.6-2-2.1-3.2S2,13.4,2,12s0.3-2.7,0.8-3.9S4,5.8,4.9,4.9s2-1.6,3.2-2.1S10.6,2,12,2s2.7,0.3,3.9,0.8
	s2.3,1.2,3.2,2.1s1.6,2,2.1,3.2C21.7,9.3,22,10.6,22,12s-0.3,2.7-0.8,3.9c-0.5,1.2-1.2,2.3-2.1,3.2c-0.9,0.9-2,1.6-3.2,2.1
	S13.4,22,12,22z M10.7,4.1c0.7,1.2,1.6,2.1,2.8,2.8S16,8,17.5,8c0.2,0,0.5,0,0.7,0s0.4-0.1,0.7-0.1c-0.7-1.2-1.6-2.1-2.9-2.8
	S13.5,4,12,4c-0.2,0-0.5,0-0.7,0C11.1,4.1,10.9,4.1,10.7,4.1z M4.4,9.5C5.3,9,6,8.4,6.7,7.6S7.8,6,8.1,5C7.2,5.5,6.5,6.1,5.8,6.9
	S4.7,8.5,4.4,9.5z"/>
<path class="st1" d="M9.6,16.1c0,0,2.1,1.5,4.9,0"/>
</svg>
