<svg width="91" height="91" viewBox="0 0 91 91" fill="none" xmlns="http://www.w3.org/2000/svg">
<g filter="url(#filter0_d_122_416)">
<circle cx="41.5" cy="41.5" r="41.5" transform="matrix(-1 0 0 1 87 0)" fill="#607C7B"/>
<path d="M61.875 65V58.2H37.9125C34.3687 58.2 31.2891 57.0667 28.6734 54.8C26.0578 52.5333 24.75 49.7 24.75 46.3C24.75 42.9 26.0578 40.0667 28.6734 37.8C31.2891 35.5333 34.3687 34.4 37.9125 34.4H59.175L50.4 43.24L55.125 48L72 31L55.125 14L50.4 18.76L59.175 27.6H37.9125C32.4562 27.6 27.7734 29.385 23.8641 32.955C19.9547 36.525 18 40.9733 18 46.3C18 51.6267 19.9547 56.075 23.8641 59.645C27.7734 63.215 32.4562 65 37.9125 65H61.875Z" fill="white"/>
</g>
<defs>
<filter id="filter0_d_122_416" x="0" y="0" width="91" height="91" filterUnits="userSpaceOnUse" color-interpolation-filters="sRGB">
<feFlood flood-opacity="0" result="BackgroundImageFix"/>
<feColorMatrix in="SourceAlpha" type="matrix" values="0 0 0 0 0 0 0 0 0 0 0 0 0 0 0 0 0 0 127 0" result="hardAlpha"/>
<feOffset dy="4"/>
<feGaussianBlur stdDeviation="2"/>
<feComposite in2="hardAlpha" operator="out"/>
<feColorMatrix type="matrix" values="0 0 0 0 0 0 0 0 0 0 0 0 0 0 0 0 0 0 0.25 0"/>
<feBlend mode="normal" in2="BackgroundImageFix" result="effect1_dropShadow_122_416"/>
<feBlend mode="normal" in="SourceGraphic" in2="effect1_dropShadow_122_416" result="shape"/>
</filter>
</defs>
</svg>
