<svg width="44" height="17" viewBox="0 0 44 17" fill="none" xmlns="http://www.w3.org/2000/svg">
<path d="M4.25806 17V4.25H0V0H8.51613V17H4.25806ZM14.1935 17V9.91667C14.1935 9.11389 14.4656 8.44097 15.0097 7.89792C15.5538 7.35486 16.228 7.08333 17.0323 7.08333H22.7097V4.25H14.1935V0H24.129C24.9333 0 25.6075 0.271528 26.1516 0.814583C26.6957 1.35764 26.9677 2.03056 26.9677 2.83333V7.08333C26.9677 7.88611 26.6957 8.55903 26.1516 9.10208C25.6075 9.64514 24.9333 9.91667 24.129 9.91667H18.4516V12.75H26.9677V17H14.1935ZM31.2258 17V12.75H39.7419V9.91667H34.0645V7.08333H39.7419V4.25H31.2258V0H41.1613C41.9656 0 42.6398 0.271528 43.1839 0.814583C43.728 1.35764 44 2.03056 44 2.83333V14.1667C44 14.9694 43.728 15.6424 43.1839 16.1854C42.6398 16.7285 41.9656 17 41.1613 17H31.2258Z" fill="#8B1ECE"/>
</svg>
