<svg width="48" height="40" viewBox="0 0 48 40" fill="none" xmlns="http://www.w3.org/2000/svg">
<path d="M8.72727 40C8.10909 40 7.59091 39.787 7.17273 39.3611C6.75455 38.9352 6.54545 38.4074 6.54545 37.7778V35.5556C4.72727 35.5556 3.18182 34.9074 1.90909 33.6111C0.636364 32.3148 0 30.7407 0 28.8889V17.7778C0 15.9259 0.636364 14.3519 1.90909 13.0556C3.18182 11.7593 4.72727 11.1111 6.54545 11.1111V6.66667C6.54545 4.81482 7.18182 3.24074 8.45455 1.94444C9.72727 0.648148 11.2727 0 13.0909 0H34.9091C36.7273 0 38.2727 0.648148 39.5455 1.94444C40.8182 3.24074 41.4545 4.81482 41.4545 6.66667V11.1111C43.2727 11.1111 44.8182 11.7593 46.0909 13.0556C47.3636 14.3519 48 15.9259 48 17.7778V28.8889C48 30.7407 47.3636 32.3148 46.0909 33.6111C44.8182 34.9074 43.2727 35.5556 41.4545 35.5556V37.7778C41.4545 38.4074 41.2455 38.9352 40.8273 39.3611C40.4091 39.787 39.8909 40 39.2727 40C38.6545 40 38.1364 39.787 37.7182 39.3611C37.3 38.9352 37.0909 38.4074 37.0909 37.7778V35.5556H10.9091V37.7778C10.9091 38.4074 10.7 38.9352 10.2818 39.3611C9.86364 39.787 9.34546 40 8.72727 40ZM6.54545 31.1111H41.4545C42.0727 31.1111 42.5909 30.8982 43.0091 30.4722C43.4273 30.0463 43.6364 29.5185 43.6364 28.8889V17.7778C43.6364 17.1481 43.4273 16.6204 43.0091 16.1944C42.5909 15.7685 42.0727 15.5556 41.4545 15.5556C40.8364 15.5556 40.3182 15.7685 39.9 16.1944C39.4818 16.6204 39.2727 17.1481 39.2727 17.7778V26.6667H8.72727V17.7778C8.72727 17.1481 8.51818 16.6204 8.1 16.1944C7.68182 15.7685 7.16364 15.5556 6.54545 15.5556C5.92727 15.5556 5.40909 15.7685 4.99091 16.1944C4.57273 16.6204 4.36364 17.1481 4.36364 17.7778V28.8889C4.36364 29.5185 4.57273 30.0463 4.99091 30.4722C5.40909 30.8982 5.92727 31.1111 6.54545 31.1111ZM13.0909 22.2222H34.9091V17.7778C34.9091 16.7778 35.1091 15.8704 35.5091 15.0556C35.9091 14.2407 36.4364 13.5185 37.0909 12.8889V6.66667C37.0909 6.03704 36.8818 5.50926 36.4636 5.08333C36.0455 4.65741 35.5273 4.44444 34.9091 4.44444H13.0909C12.4727 4.44444 11.9545 4.65741 11.5364 5.08333C11.1182 5.50926 10.9091 6.03704 10.9091 6.66667V12.8889C11.5636 13.5185 12.0909 14.2407 12.4909 15.0556C12.8909 15.8704 13.0909 16.7778 13.0909 17.7778V22.2222Z" fill="#FF9E45"/>
</svg>
