<svg width="40" height="40" viewBox="0 0 40 40" fill="none" xmlns="http://www.w3.org/2000/svg">
<path d="M12.7 40L9 38.5L11.9 31.45C8.36667 30.5167 5.5 28.6167 3.3 25.75C1.1 22.8833 0 19.6333 0 16V8C0 5.8 0.783333 3.91667 2.35 2.35C3.91667 0.783333 5.8 0 8 0C8.73333 0 9.43333 0.125 10.1 0.375C10.7667 0.625 11.4333 0.883333 12.1 1.15L24 6L16 9V12L38 26L40 36H36L34 32H24V40H20V32H16L12.7 40ZM16 28H33.65L30.5 26H16C13.8 26 11.9167 25.2167 10.35 23.65C8.78333 22.0833 8 20.2 8 18H12C12 19.1 12.3917 20.0417 13.175 20.825C13.9583 21.6083 14.9 22 16 22H24.25L12 14.2V8C12 6.9 11.6083 5.95833 10.825 5.175C10.0417 4.39167 9.1 4 8 4C6.9 4 5.95833 4.39167 5.175 5.175C4.39167 5.95833 4 6.9 4 8V16C4 19.3333 5.16667 22.1667 7.5 24.5C9.83333 26.8333 12.6667 28 16 28ZM8 10C7.43333 10 6.95833 9.80833 6.575 9.425C6.19167 9.04167 6 8.56667 6 8C6 7.43333 6.19167 6.95833 6.575 6.575C6.95833 6.19167 7.43333 6 8 6C8.56667 6 9.04167 6.19167 9.425 6.575C9.80833 6.95833 10 7.43333 10 8C10 8.56667 9.80833 9.04167 9.425 9.425C9.04167 9.80833 8.56667 10 8 10Z" fill="#FF6480"/>
</svg>
