<svg width="41" height="41" viewBox="0 0 41 41" fill="none" xmlns="http://www.w3.org/2000/svg">
<path d="M20.5 41C17.6983 41 15.0504 40.4619 12.5562 39.3856C10.0621 38.3094 7.88396 36.8402 6.02187 34.9781C4.15979 33.116 2.69063 30.9379 1.61437 28.4437C0.538125 25.9496 0 23.3017 0 20.5C0 17.6642 0.555208 14.9992 1.66562 12.505C2.77604 10.0108 4.27938 7.84125 6.17562 5.99625C8.07187 4.15125 10.2842 2.69063 12.8125 1.61437C15.3408 0.538125 18.04 0 20.91 0C23.6433 0 26.2229 0.469792 28.6488 1.40937C31.0746 2.34896 33.2015 3.64729 35.0294 5.30438C36.8573 6.96146 38.3094 8.92604 39.3856 11.1981C40.4619 13.4702 41 15.9217 41 18.5525C41 22.4817 39.8042 25.4969 37.4125 27.5981C35.0208 29.6994 32.1167 30.75 28.7 30.75H24.9075C24.6 30.75 24.3865 30.8354 24.2669 31.0062C24.1473 31.1771 24.0875 31.365 24.0875 31.57C24.0875 31.98 24.3437 32.5694 24.8562 33.3381C25.3687 34.1069 25.625 34.9867 25.625 35.9775C25.625 37.6858 25.1552 38.95 24.2156 39.77C23.276 40.59 22.0375 41 20.5 41ZM9.225 22.55C10.1133 22.55 10.8479 22.2596 11.4288 21.6787C12.0096 21.0979 12.3 20.3633 12.3 19.475C12.3 18.5867 12.0096 17.8521 11.4288 17.2712C10.8479 16.6904 10.1133 16.4 9.225 16.4C8.33667 16.4 7.60208 16.6904 7.02125 17.2712C6.44042 17.8521 6.15 18.5867 6.15 19.475C6.15 20.3633 6.44042 21.0979 7.02125 21.6787C7.60208 22.2596 8.33667 22.55 9.225 22.55ZM15.375 14.35C16.2633 14.35 16.9979 14.0596 17.5787 13.4788C18.1596 12.8979 18.45 12.1633 18.45 11.275C18.45 10.3867 18.1596 9.65208 17.5787 9.07125C16.9979 8.49042 16.2633 8.2 15.375 8.2C14.4867 8.2 13.7521 8.49042 13.1713 9.07125C12.5904 9.65208 12.3 10.3867 12.3 11.275C12.3 12.1633 12.5904 12.8979 13.1713 13.4788C13.7521 14.0596 14.4867 14.35 15.375 14.35ZM25.625 14.35C26.5133 14.35 27.2479 14.0596 27.8287 13.4788C28.4096 12.8979 28.7 12.1633 28.7 11.275C28.7 10.3867 28.4096 9.65208 27.8287 9.07125C27.2479 8.49042 26.5133 8.2 25.625 8.2C24.7367 8.2 24.0021 8.49042 23.4212 9.07125C22.8404 9.65208 22.55 10.3867 22.55 11.275C22.55 12.1633 22.8404 12.8979 23.4212 13.4788C24.0021 14.0596 24.7367 14.35 25.625 14.35ZM31.775 22.55C32.6633 22.55 33.3979 22.2596 33.9788 21.6787C34.5596 21.0979 34.85 20.3633 34.85 19.475C34.85 18.5867 34.5596 17.8521 33.9788 17.2712C33.3979 16.6904 32.6633 16.4 31.775 16.4C30.8867 16.4 30.1521 16.6904 29.5712 17.2712C28.9904 17.8521 28.7 18.5867 28.7 19.475C28.7 20.3633 28.9904 21.0979 29.5712 21.6787C30.1521 22.2596 30.8867 22.55 31.775 22.55ZM20.5 36.9C20.8075 36.9 21.0552 36.8146 21.2431 36.6437C21.431 36.4729 21.525 36.2508 21.525 35.9775C21.525 35.4992 21.2688 34.9354 20.7563 34.2863C20.2437 33.6371 19.9875 32.6633 19.9875 31.365C19.9875 29.93 20.4829 28.7854 21.4738 27.9312C22.4646 27.0771 23.6775 26.65 25.1125 26.65H28.7C30.955 26.65 32.8854 25.9923 34.4912 24.6769C36.0971 23.3615 36.9 21.32 36.9 18.5525C36.9 14.4183 35.3198 10.976 32.1594 8.22563C28.999 5.47521 25.2492 4.1 20.91 4.1C16.2633 4.1 12.3 5.68875 9.02 8.86625C5.74 12.0437 4.1 15.9217 4.1 20.5C4.1 25.0442 5.69729 28.9135 8.89188 32.1081C12.0865 35.3027 15.9558 36.9 20.5 36.9Z" fill="#16A000"/>
</svg>
