<svg width="47" height="47" viewBox="0 0 47 47" fill="none" xmlns="http://www.w3.org/2000/svg">
<path d="M21.3636 8.54545V0H25.6364V8.54545H21.3636ZM35.5705 14.4205L32.633 11.483L38.6148 5.34091L41.6057 8.38523L35.5705 14.4205ZM38.4545 25.6364V21.3636H47V25.6364H38.4545ZM21.3636 47V38.4545H25.6364V47H21.3636ZM11.4295 14.3136L5.34091 8.38523L8.38523 5.39432L14.4205 11.4295L11.4295 14.3136ZM38.5614 41.6591L32.633 35.517L35.517 32.633L41.6057 38.508L38.5614 41.6591ZM0 25.6364V21.3636H8.54545V25.6364H0ZM8.38523 41.6591L5.39432 38.6148L11.3761 32.633L12.925 34.075L14.4739 35.5705L8.38523 41.6591ZM23.5 36.3182C19.9394 36.3182 16.9129 35.072 14.4205 32.5795C11.928 30.0871 10.6818 27.0606 10.6818 23.5C10.6818 19.9394 11.928 16.9129 14.4205 14.4205C16.9129 11.928 19.9394 10.6818 23.5 10.6818C27.0606 10.6818 30.0871 11.928 32.5795 14.4205C35.072 16.9129 36.3182 19.9394 36.3182 23.5C36.3182 27.0606 35.072 30.0871 32.5795 32.5795C30.0871 35.072 27.0606 36.3182 23.5 36.3182ZM23.5 32.0455C25.85 32.0455 27.8617 31.2087 29.5352 29.5352C31.2087 27.8617 32.0455 25.85 32.0455 23.5C32.0455 21.15 31.2087 19.1383 29.5352 17.4648C27.8617 15.7913 25.85 14.9545 23.5 14.9545C21.15 14.9545 19.1383 15.7913 17.4648 17.4648C15.7913 19.1383 14.9545 21.15 14.9545 23.5C14.9545 25.85 15.7913 27.8617 17.4648 29.5352C19.1383 31.2087 21.15 32.0455 23.5 32.0455Z" fill="#3553BF"/>
</svg>
