<svg width="56" height="65" viewBox="0 0 56 65" fill="none" xmlns="http://www.w3.org/2000/svg">
<path d="M47.5 35.2H15.2C14.6 35.2 14.2 35.6 14.2 36.2V56.2C14.2 56.8 14.6 57.2 15.2 57.2C19.2 57.2 44.6 57.2 47.5 57.2C48.0999 57.2 48.5 56.8 48.5 56.2V36.2C48.5 35.6 48.0999 35.2 47.5 35.2ZM27.5 55.2H19.7999L27.4 42.7999L31.2999 49.0999L27.5 55.2ZM29.7999 55.2L35.2999 46.2L40.7999 55.2H29.7999ZM46.5 55.2H43.2L36.2 43.7C36 43.4 35.6999 43.2 35.2999 43.2C35 43.2 34.6 43.4 34.4 43.7L32.2999 47.2L28.2 40.5C28 40.2 27.6999 40 27.2999 40C26.9999 40 26.5999 40.2 26.4 40.5L17.2999 55.2999H16.1V37.2999H46.4V55.2H46.5Z" fill="black"/>
<path d="M41.9999 46C43.9999 46 45.6999 44.4 45.6999 42.3C45.6999 40.3 44.0999 38.6 41.9999 38.6C39.9999 38.6 38.2999 40.2 38.2999 42.3C38.2999 44.3 39.9999 46 41.9999 46ZM41.9999 40.6C42.8999 40.6 43.6999 41.3 43.6999 42.3C43.6999 43.2 42.9999 44 41.9999 44C40.9999 44 40.2999 43.3 40.2999 42.3C40.2999 41.4 41.0999 40.6 41.9999 40.6Z" fill="black"/>
<path d="M47.5 7.40002H15.2C14.6 7.40002 14.2 7.80002 14.2 8.40002V28.4C14.2 29 14.6 29.4 15.2 29.4C15.3 29.4 48.2999 29.4 47.5 29.4C48.0999 29.4 48.5 29 48.5 28.4V8.40002C48.5 7.90002 48.0999 7.40002 47.5 7.40002ZM21.9 27.5L27.4 18.5L32.9 27.5H21.9ZM35.2999 27.5L31.5999 21.4L35.5 15.1L43 27.5H35.2999ZM46.5 27.5H45.2999L36.2 12.7C36 12.4 35.6999 12.2 35.2999 12.2C35 12.2 34.6 12.4 34.4 12.7L30.4 19.5L28.2999 16C28.0999 15.7 27.8 15.5 27.4 15.5C27.1 15.5 26.7 15.7 26.5 16L19.5 27.5H16.2V9.50002H46.5V27.5Z" fill="black"/>
<path d="M20.8 18.2C22.8 18.2 24.5 16.6 24.5 14.5C24.5 12.5 22.9 10.8 20.8 10.8C18.8 10.8 17.1 12.4 17.1 14.5C17.1 16.5 18.7 18.2 20.8 18.2ZM20.8 12.8C21.7 12.8 22.5 13.5 22.5 14.5C22.5 15.4 21.8 16.2 20.8 16.2C19.9 16.2 19.1 15.5 19.1 14.5C19.1 13.6 19.8 12.8 20.8 12.8Z" fill="black"/>
<path d="M51.2999 0.5H8.89995C6.69995 0.5 4.89995 2.3 4.89995 4.5V7.4H1.69995C1.09995 7.4 0.699951 7.8 0.699951 8.4C0.699951 9 1.09995 9.4 1.69995 9.4H4.99995V15.4H1.69995C1.09995 15.4 0.699951 15.8 0.699951 16.4C0.699951 17 1.09995 17.4 1.69995 17.4H4.99995V23.4H1.69995C1.09995 23.4 0.699951 23.8 0.699951 24.4C0.699951 25 1.09995 25.4 1.69995 25.4H4.99995V31.4H1.69995C1.09995 31.4 0.699951 31.8 0.699951 32.4C0.699951 33 1.09995 33.4 1.69995 33.4H4.99995V39.4H1.69995C1.09995 39.4 0.699951 39.8 0.699951 40.4C0.699951 41 1.09995 41.4 1.69995 41.4H4.99995V47.4H1.69995C1.09995 47.4 0.699951 47.8 0.699951 48.4C0.699951 49 1.09995 49.4 1.69995 49.4H4.99995V55.4H1.69995C1.09995 55.4 0.699951 55.8 0.699951 56.4C0.699951 57 1.09995 57.4 1.69995 57.4H4.99995V60.5C4.99995 62.7 6.79995 64.5 8.99995 64.5H51.4C53.6 64.5 55.4 62.7 55.4 60.5V4.5C55.3 2.3 53.5 0.5 51.2999 0.5ZM53.2999 60.5C53.2999 61.6 52.3999 62.5 51.2999 62.5H8.89995C7.79995 62.5 6.89995 61.6 6.89995 60.5V57.6H10.1C10.7 57.6 11.1 57.2 11.1 56.6C11.1 56 10.7 55.6 10.1 55.6H6.99995V49.6H10.2C10.8 49.6 11.2 49.2 11.2 48.6C11.2 48 10.8 47.6 10.2 47.6H6.99995V41.6H10.2C10.8 41.6 11.2 41.2 11.2 40.6C11.2 40 10.8 39.6 10.2 39.6H6.99995V33.6H10.2C10.8 33.6 11.2 33.2 11.2 32.6C11.2 32 10.8 31.6 10.2 31.6H6.99995V25.6H10.2C10.8 25.6 11.2 25.2 11.2 24.6C11.2 24 10.8 23.6 10.2 23.6H6.99995V17.6H10.2C10.8 17.6 11.2 17.2 11.2 16.6C11.2 16 10.8 15.6 10.2 15.6H6.99995V9.6H10.2C10.8 9.6 11.2 9.2 11.2 8.6C11.2 8 10.8 7.6 10.2 7.6H6.99995V4.5C6.99995 3.4 7.89995 2.5 8.99995 2.5H51.4C52.5 2.5 53.4 3.4 53.4 4.5V60.5H53.2999Z" fill="black"/>
</svg>
