<svg width="24" height="25" viewBox="0 0 24 25" fill="none" xmlns="http://www.w3.org/2000/svg">
<path d="M12 23C10.8 21.8667 9.425 21 7.875 20.4C6.325 19.8 4.7 19.5 3 19.5V8.5C4.68333 8.5 6.3 8.80417 7.85 9.4125C9.4 10.0208 10.7833 10.9 12 12.05C13.2167 10.9 14.6 10.0208 16.15 9.4125C17.7 8.80417 19.3167 8.5 21 8.5V19.5C19.2833 19.5 17.6542 19.8 16.1125 20.4C14.5708 21 13.2 21.8667 12 23ZM12 20.4C13.05 19.6167 14.1667 18.9917 15.35 18.525C16.5333 18.0583 17.75 17.75 19 17.6V10.7C17.7833 10.9167 16.5875 11.3542 15.4125 12.0125C14.2375 12.6708 13.1 13.55 12 14.65C10.9 13.55 9.7625 12.6708 8.5875 12.0125C7.4125 11.3542 6.21667 10.9167 5 10.7V17.6C6.25 17.75 7.46667 18.0583 8.65 18.525C9.83333 18.9917 10.95 19.6167 12 20.4ZM12 9.5C10.9 9.5 9.95833 9.10833 9.175 8.325C8.39167 7.54167 8 6.6 8 5.5C8 4.4 8.39167 3.45833 9.175 2.675C9.95833 1.89167 10.9 1.5 12 1.5C13.1 1.5 14.0417 1.89167 14.825 2.675C15.6083 3.45833 16 4.4 16 5.5C16 6.6 15.6083 7.54167 14.825 8.325C14.0417 9.10833 13.1 9.5 12 9.5ZM12 7.5C12.55 7.5 13.0208 7.30417 13.4125 6.9125C13.8042 6.52083 14 6.05 14 5.5C14 4.95 13.8042 4.47917 13.4125 4.0875C13.0208 3.69583 12.55 3.5 12 3.5C11.45 3.5 10.9792 3.69583 10.5875 4.0875C10.1958 4.47917 10 4.95 10 5.5C10 6.05 10.1958 6.52083 10.5875 6.9125C10.9792 7.30417 11.45 7.5 12 7.5Z" fill="black"/>
</svg>
