<svg width="59" height="59" viewBox="0 0 59 59" fill="none" xmlns="http://www.w3.org/2000/svg">
<g filter="url(#filter0_d_120_522)">
<circle cx="29.5" cy="25.5" r="25.5" fill="#FAF8F2"/>
</g>
<path d="M33.1667 41V37.2514C35.9167 36.459 38.1319 34.9352 39.8125 32.68C41.4931 30.4248 42.3333 27.8648 42.3333 25C42.3333 22.1352 41.4931 19.5752 39.8125 17.32C38.1319 15.0648 35.9167 13.541 33.1667 12.7486V9C36.9556 9.85333 40.0417 11.7657 42.425 14.7371C44.8083 17.7086 46 21.1295 46 25C46 28.8705 44.8083 32.2914 42.425 35.2629C40.0417 38.2343 36.9556 40.1467 33.1667 41ZM13 30.5314V19.56H20.3333L29.5 10.4171V39.6743L20.3333 30.5314H13ZM33.1667 32.36V17.64C34.6028 18.3105 35.7257 19.3162 36.5354 20.6571C37.3451 21.9981 37.75 23.461 37.75 25.0457C37.75 26.6 37.3451 28.04 36.5354 29.3657C35.7257 30.6914 34.6028 31.6895 33.1667 32.36ZM25.8333 19.2857L21.8917 23.2171H16.6667V26.8743H21.8917L25.8333 30.8057V19.2857Z" fill="#2D2D2D"/>
<path fill-rule="evenodd" clip-rule="evenodd" d="M29.5 51C43.5833 51 55 39.5833 55 25.5C55 11.4167 43.5833 0 29.5 0C15.4167 0 4 11.4167 4 25.5C4 39.5833 15.4167 51 29.5 51ZM29.5 48C41.9264 48 52 37.9264 52 25.5C52 13.0736 41.9264 3 29.5 3C17.0736 3 7 13.0736 7 25.5C7 37.9264 17.0736 48 29.5 48Z" fill="#607C7B"/>
<defs>
<filter id="filter0_d_120_522" x="0" y="0" width="59" height="59" filterUnits="userSpaceOnUse" color-interpolation-filters="sRGB">
<feFlood flood-opacity="0" result="BackgroundImageFix"/>
<feColorMatrix in="SourceAlpha" type="matrix" values="0 0 0 0 0 0 0 0 0 0 0 0 0 0 0 0 0 0 127 0" result="hardAlpha"/>
<feOffset dy="4"/>
<feGaussianBlur stdDeviation="2"/>
<feComposite in2="hardAlpha" operator="out"/>
<feColorMatrix type="matrix" values="0 0 0 0 0 0 0 0 0 0 0 0 0 0 0 0 0 0 0.25 0"/>
<feBlend mode="normal" in2="BackgroundImageFix" result="effect1_dropShadow_120_522"/>
<feBlend mode="normal" in="SourceGraphic" in2="effect1_dropShadow_120_522" result="shape"/>
</filter>
</defs>
</svg>
