<svg width="51" height="51" viewBox="0 0 51 51" fill="none" xmlns="http://www.w3.org/2000/svg">
<circle cx="25.5" cy="25.5" r="25.5" fill="#D9D9D9"/>
<path d="M29.1667 41V37.2514C31.9167 36.459 34.1319 34.9352 35.8125 32.68C37.4931 30.4248 38.3333 27.8648 38.3333 25C38.3333 22.1352 37.4931 19.5752 35.8125 17.32C34.1319 15.0648 31.9167 13.541 29.1667 12.7486V9C32.9556 9.85333 36.0417 11.7657 38.425 14.7371C40.8083 17.7086 42 21.1295 42 25C42 28.8705 40.8083 32.2914 38.425 35.2629C36.0417 38.2343 32.9556 40.1467 29.1667 41ZM9 30.5314V19.56H16.3333L25.5 10.4171V39.6743L16.3333 30.5314H9ZM29.1667 32.36V17.64C30.6028 18.3105 31.7257 19.3162 32.5354 20.6571C33.3451 21.9981 33.75 23.461 33.75 25.0457C33.75 26.6 33.3451 28.04 32.5354 29.3657C31.7257 30.6914 30.6028 31.6895 29.1667 32.36ZM21.8333 19.2857L17.8917 23.2171H12.6667V26.8743H17.8917L21.8333 30.8057V19.2857Z" fill="black"/>
</svg>
