<svg xmlns="http://www.w3.org/2000/svg" width="42" height="620" viewBox="0 0 42 620" fill="none">
<circle cx="34.5" cy="7.5" r="7.5" fill="#A0D36D"/>
<circle cx="34.5" cy="227.5" r="7.5" fill="#A0D36D"/>
<circle cx="34.5" cy="447.5" r="7.5" fill="#A0D36D"/>
<circle cx="34.5" cy="117.5" r="7.5" fill="#A0D36D"/>
<circle cx="34.5" cy="337.5" r="7.5" fill="#A0D36D"/>
<circle cx="34.5" cy="557.5" r="7.5" fill="#A0D36D"/>
<circle cx="34.5" cy="62.5" r="7.5" fill="#A0D36D"/>
<circle cx="34.5" cy="282.5" r="7.5" fill="#A0D36D"/>
<circle cx="34.5" cy="502.5" r="7.5" fill="#A0D36D"/>
<circle cx="34.5" cy="172.5" r="7.5" fill="#A0D36D"/>
<circle cx="34.5" cy="392.5" r="7.5" fill="#A0D36D"/>
<circle cx="34.5" cy="612.5" r="7.5" fill="#A0D36D"/>
<line y1="-1.5" x2="34" y2="-1.5" transform="matrix(-1 8.74228e-08 8.74228e-08 1 34 9)" stroke="black" stroke-width="3"/>
<line y1="-1.5" x2="34" y2="-1.5" transform="matrix(-1 8.74228e-08 8.74228e-08 1 34 339)" stroke="black" stroke-width="3"/>
<line y1="-1.5" x2="34" y2="-1.5" transform="matrix(-1 8.74228e-08 8.74228e-08 1 34 174)" stroke="black" stroke-width="3"/>
<line y1="-1.5" x2="34" y2="-1.5" transform="matrix(-1 8.74228e-08 8.74228e-08 1 34 504)" stroke="black" stroke-width="3"/>
<line y1="-1.5" x2="34" y2="-1.5" transform="matrix(-1 8.74228e-08 8.74228e-08 1 34 64)" stroke="black" stroke-width="3"/>
<line y1="-1.5" x2="34" y2="-1.5" transform="matrix(-1 8.74228e-08 8.74228e-08 1 34 394)" stroke="black" stroke-width="3"/>
<line y1="-1.5" x2="34" y2="-1.5" transform="matrix(-1 8.74228e-08 8.74228e-08 1 34 229)" stroke="black" stroke-width="3"/>
<line y1="-1.5" x2="34" y2="-1.5" transform="matrix(-1 8.74228e-08 8.74228e-08 1 34 559)" stroke="black" stroke-width="3"/>
<line y1="-1.5" x2="34" y2="-1.5" transform="matrix(-1 8.74228e-08 8.74228e-08 1 34 119)" stroke="black" stroke-width="3"/>
<line y1="-1.5" x2="34" y2="-1.5" transform="matrix(-1 8.74228e-08 8.74228e-08 1 34 449)" stroke="black" stroke-width="3"/>
<line y1="-1.5" x2="34" y2="-1.5" transform="matrix(-1 8.74228e-08 8.74228e-08 1 34 284)" stroke="black" stroke-width="3"/>
<line y1="-1.5" x2="34" y2="-1.5" transform="matrix(-1 8.74228e-08 8.74228e-08 1 34 614)" stroke="black" stroke-width="3"/>
</svg>