<svg xmlns="http://www.w3.org/2000/svg" xmlns:xlink="http://www.w3.org/1999/xlink" version="1.1" x="0px" y="0px" viewBox="0 0 500 300" style="enable-background:new 0 0 500 500;" xml:space="preserve">
<style type="text/css">
	.st0{fill:#90DBD7;}
	.st1{fill:#FFD000;}
	.st2{fill:#F18F1C;}
</style>
<g id="레이어_1">
	<path class="st0" d="M155.86,211.58c0,0-4.96-7.1-10.37-6.26c-2,0.31-3.86-0.15-9.03,7.27c-0.98,1.4-0.95,1.53-2.15,3.72   c-2.02,3.66-5.84,12.46-11.12,17.77c0,0-19.37,21.13-35.61,25.63c0,0-17.61,7.04-20.54,19.57c0,0-5.87,16.83,7.43,25.43   c0,0,16.04,9.59,38.35-2.35c0,0,12.52-8.84,22.57-18.98c0,0,8.67-8.02,11.09-9.59c0,0,1.57-0.98,1.76,0.78   c0,0,1.37,15.07,8.61,22.89c0,0,6.07,10.76,11.93,4.3c0,0,6.46-9,9.98-16.24c0,0,2.74-4.11,4.5,0.39c0,0,6.46,11.93,16.63,15.26   c10.17,3.33,17.22,0.39,17.22,0.39s13.7-5.14,4.6-21.08c0,0-10.95-15.28-12.72-19.42c0,0-8.22-12.13-6.75-33.26   c0,0,2.84-19.47-4.7-24.65c0,0-3.33-2.93-8.41-1.76c0,0-10.96,2.15-20.35,22.7C168.78,224.1,163.3,222.54,155.86,211.58z"/>
	<path class="st0" d="M329.28,228.82c-1.03-0.4-9.42-37.79-39.47-37.09c0,0-16.76-1.87-19.58,11.79   c-2.82,13.66,2.63,16.89,17.43,23.5c0,0,15.27,10.16,13.66,34.48c0,0-3.01,18.34,0.42,25.25c0,0,1.4,5.43,8.73,4.25   c0,0,14.07-1.71,36.2-31.61c0,0,15.36-23.48,15.91-36.57c0.07-1.63,1.02-6.23-2.65-9.21c0,0-5.61-6.44-12.96-0.31   c-1.35,1.33-2.39,2.61-3.53,4.71C342.65,219.45,334.58,230.88,329.28,228.82z"/>
	<path class="st1" d="M404.38,269.19c-4.28-17.42-20.27-28.46-35.71-24.67c-15.44,3.79-24.49,20.99-20.21,38.41   c4.28,17.42,20.27,28.46,35.71,24.67C399.61,303.81,408.66,286.61,404.38,269.19z M377.88,283.97c-4.85,1.19-9.75-1.78-10.95-6.63   c-1.19-4.85,1.78-9.75,6.63-10.95c4.85-1.19,9.75,1.78,10.95,6.63C385.7,277.87,382.73,282.78,377.88,283.97z"/>
	<path class="st2" d="M287.11,290.34c-0.93-2.91,0.29-5.09,0.29-5.09s6.29-13.17,5.12-27.65c-1.17-14.48-13.58-24.55-19.57-26.67   c-6.16-2.18-16.14-4.4-27.72,1.11c-10.46,4.98-13.57,13.11-13.57,13.11s-4.55,10.52,2.23,13.11c3.6,1.38,7.43-2.67,7.43-2.67   s3.89-4.06,9.7-6.33c7.97-3.12,11.43,2.15,11.43,2.15c1.28,1.1,1.76,4.11,1.76,4.11s-14.28-6.9-28.76,8.56   c-14.55,15.53-4.96,29.92-1.99,33.34c5.92,6.83,12.02,10.53,22.34,10.92c10.1,0.38,27.75-6.26,27.75-6.26   c3.91,4.11,7.73-0.02,7.73-0.02c0.76-0.78,1.19-1.86,1.38-3.01C293.33,295.1,287.11,290.34,287.11,290.34z M262.16,287.09   c-4.14,1.46-8.39,0.1-9.49-3.02c-1.1-3.13,1.37-6.84,5.51-8.3c4.14-1.46,8.39-0.1,9.49,3.02   C268.76,281.92,266.3,285.63,262.16,287.09z"/>
</g>
<g id="레이어_3">
</g>
</svg>